# xmcd
#
# Track frame offsets:
# 150
# 15305
# 29075
# 42515
# 55990
# 66397
# 77850
# 94932
# 111970
# 121400
#
# Disc length: 1812 seconds
#
#
# Revision: 1
# Processed by: cddbd v1.5.1PL0 Copyright (c) Steve Scherf et al.
# Submitted via: FreeRIP 2.931 
#
DISCID=8b07120a
DTITLE=George Jones - The Songs I Wanta Sing
DYEAR=1900
DGENRE=Country
TTITLE0=I Still Sing The Old Songs
TTITLE1=I'll Take You To My World
TTITLE2=She Loves Me ( Right Out Of My Mind )
TTITLE3=I'm Not Ready Yet
TTITLE4=The Race Is On
TTITLE5=Ain't Nobody Gonna Miss Me
TTITLE6=I Wanta Sing
TTITLE7=Bartender's Blues
TTITLE8=We Can Make It
TTITLE9=He Stopped Loving Her Today
EXTD=
EXTT0=
EXTT1=
EXTT2=
EXTT3=
EXTT4=
EXTT5=
EXTT6=
EXTT7=
EXTT8=
EXTT9=
PLAYORDER=
